#!OML:ASF H:\Terrain\Patient Classification 1\PLAYGROUND\JustinFriday\JustinFriday.ASF
:FULLY-SPECIFIED
:DEGREES
1754
root 12.7515 19.4295 19.36 162.199 7.31516 -174.053
lowerback 25.2659 0.329883 3.09103
upperback -1.10707 1.92138 2.01636
thorax -15.5436 0.809149 -0.187176
lowerneck -6.66172 -3.77951 -2.02487
upperneck 16.1592 -5.01458 4.19816
head 6.1485 -1.98919 1.32227
rclavicle 2.31087e-015 -1.33186e-014
rhumerus 103.969 -19.2208 -52.7164
rradius 25.5214
rwrist 12.9456
rhand -35.9485 2.12765
rfingers 7.12502
rthumb -9.06007 -387.658
lclavicle 2.31087e-015 -1.33186e-014
lhumerus 106.632 20.1287 56.6131
lradius 18.5232
lwrist -59.624
lhand -48.9957 -8.83858
lfingers 7.12502
lthumb -21.6249 19.9739
rfemur -33.2755 -8.5589 28.9752
rtibia 52.1985
rfoot -26.798 -13.7674
rtoes -1.56027
lfemur -17.7902 10.5897 -5.48457
ltibia 57.5307
lfoot -18.4081 6.7382
ltoes -30.5656
1755
root 12.7355 19.4362 19.1832 161.258 7.43519 -174.166
lowerback 25.2431 0.289478 3.25155
upperback -1.02067 1.9228 2.03076
thorax -15.4219 0.803553 -0.264111
lowerneck -6.05657 -3.7909 -2.14454
upperneck 16.4373 -4.92227 3.81514
head 6.12143 -1.9653 1.23934
rclavicle 3.00662e-015 1.33186e-014
rhumerus 102.919 -19.3605 -51.3304
rradius 25.9436
rwrist 11.7687
rhand -35.8259 1.82043
rfingers 7.12502
rthumb -8.94181 -387.97
lclavicle 3.00662e-015 1.33186e-014
lhumerus 104.92 20.9735 54.1141
lradius 19.2498
lwrist -57.0943
lhand -48.6121 -8.51994
lfingers 7.12502
lthumb -21.2565 20.3345
rfemur -33.4092 -8.44056 28.8885
rtibia 51.3898
rfoot -26.6919 -14.0962
rtoes -0.885346
lfemur -16.9679 10.7254 -5.71673
ltibia 57.1712
lfoot -18.3056 5.93246
ltoes -30.0128
1756
root 12.719 19.4384 18.9985 160.372 7.51005 -174.38
lowerback 25.1972 0.283486 3.33221
upperback -0.965518 1.93468 2.01098
thorax -15.3253 0.804517 -0.337781
lowerneck -5.62962 -3.82781 -2.11849
upperneck 16.8139 -4.85582 3.27022
head 6.15012 -1.95241 1.0761
rclavicle -2.52953e-014 -2.93207e-014
rhumerus 101.704 -19.6903 -49.5739
rradius 26.4072
rwrist 10.2681
rhand -35.7299 1.47253
rfingers 7.12502
rthumb -8.84918 -388.322
lclavicle -2.52953e-014 -2.93207e-014
lhumerus 103.502 21.389 52.2495
lradius 19.8321
lwrist -55.2422
lhand -48.299 -8.24646
lfingers 7.12502
lthumb -20.9557 20.6415
rfemur -33.5689 -8.38239 28.6899
rtibia 50.6263
rfoot -26.4765 -14.6247
rtoes 0.345054
lfemur -16.1674 10.9868 -6.08748
ltibia 56.7896
lfoot -18.0374 5.46239
ltoes -30.2599
1757
root 12.7049 19.4435 18.812 159.629 7.42462 -174.751
lowerback 24.8201 0.263223 3.2296
upperback -0.799571 1.83291 1.88657
thorax -14.9091 0.769568 -0.380896
lowerneck -5.20476 -3.8189 -1.95374
upperneck 16.8375 -4.77477 2.83231
head 6.06677 -1.93072 0.924799
rclavicle 9.61621e-015 -2.20651e-014
rhumerus 100.732 -20.1558 -48.206
rradius 26.9521
rwrist 8.98728
rhand -35.555 1.12842
rfingers 7.12502
rthumb -8.68034 -388.673
lclavicle 9.61621e-015 -2.20651e-014
lhumerus 102.587 21.6799 50.9166
lradius 20.3435
lwrist -53.9774
lhand -47.9997 -8.04643
lfingers 7.12502
lthumb -20.6681 20.8731
rfemur -33.906 -8.37399 28.2619
rtibia 49.9126
rfoot -26.5787 -14.6043
rtoes 1.85515
lfemur -15.4944 11.2284 -6.71463
ltibia 56.3661
lfoot -17.7511 5.05248
ltoes -30.9368
1758
root 12.6938 19.4652 18.63 158.954 7.3112 -175.011
lowerback 24.3646 0.247408 3.10151
upperback -0.598161 1.75008 1.87234
thorax -14.413 0.754979 -0.289358
lowerneck -4.79554 -3.83877 -2.10939
upperneck 16.8003 -4.73574 2.60519
head 5.98179 -1.93605 0.889435
rclavicle 2.21148e-015 1.05356e-014
rhumerus 100.047 -20.4601 -47.2689
rradius 27.5523
rwrist 8.03315
rhand -35.3409 0.87246
rfingers 7.12502
rthumb -8.47377 -388.938
lclavicle 2.21148e-015 1.05356e-014
lhumerus 101.873 22.0216 49.9737
lradius 20.8885
lwrist -52.9243
lhand -47.6229 -7.93463
lfingers 7.12502
lthumb -20.306 21.0238
rfemur -34.2506 -8.38878 27.9534
rtibia 49.1959
rfoot -26.4314 -14.6253
rtoes 0.64515
lfemur -14.8265 11.3304 -7.2351
ltibia 55.9288
lfoot -17.2183 3.87894
ltoes -29.8764
1759
root 12.6779 19.4816 18.4418 158.199 7.29654 -174.935
lowerback 24.2635 0.199966 3.29724
upperback -0.5637 1.76888 2.01743
thorax -14.3148 0.762458 -0.241638
lowerneck -4.13287 -3.93203 -2.43178
upperneck 16.9518 -4.75192 2.35282
head 5.91809 -1.96537 0.875089
rclavicle 8.59744e-015 8.12532e-015
rhumerus 99.0802 -20.625 -45.9943
rradius 28.2038
rwrist 6.91686
rhand -35.1115 0.596215
rfingers 7.12502
rthumb -8.25242 -389.223
lclavicle 8.59744e-015 8.12532e-015
lhumerus 101.028 22.0512 49.3129
lradius 21.3373
lwrist -52.1059
lhand -47.2725 -7.87067
lfingers 7.12502
lthumb -19.9692 21.1233
rfemur -34.3477 -8.42858 28.0068
rtibia 48.4579
rfoot -26.2136 -14.9665
rtoes -1.54248
lfemur -13.9611 11.4337 -7.35009
ltibia 55.4744
lfoot -16.3538 2.52831
ltoes -27.7661
1760
root 12.6603 19.4968 18.2466 157.486 7.20803 -174.957
lowerback 24.1272 0.140923 3.44409
upperback -0.588838 1.73117 2.05273
thorax -14.2655 0.7368 -0.270073
lowerneck -3.3335 -3.96812 -2.50587
upperneck 17.0485 -4.71175 2.11058
head 5.8063 -1.94748 0.830227
rclavicle -9.48576e-015 -3.70485e-014
rhumerus 97.7871 -20.9981 -44.3019
rradius 28.9259
rwrist 5.4911
rhand -34.848 0.179467
rfingers 7.12502
rthumb -7.99806 -389.649
lclavicle -9.48576e-015 -3.70485e-014
lhumerus 99.8454 22.1998 47.8676
lradius 21.8639
lwrist -50.6537
lhand -46.9327 -7.67654
lfingers 7.12502
lthumb -19.6426 21.3511
rfemur -34.4589 -8.50772 27.8992
rtibia 47.7106
rfoot -26.3725 -14.7449
rtoes -1.07175
lfemur -13.0806 11.5454 -7.64708
ltibia 54.9371
lfoot -15.6404 2.0995
ltoes -30.7144
1761
root 12.6471 19.5149 18.051 156.867 6.98077 -175.26
lowerback 23.8007 0.133401 3.23699
upperback -0.514575 1.62946 1.99032
thorax -13.9963 0.706581 -0.183556
lowerneck -2.94344 -3.95794 -2.68576
upperneck 17.2486 -4.64899 2.13546
head 5.80601 -1.90753 0.879622
rclavicle -9.73424e-015 -1.55968e-014
rhumerus 96.6512 -21.4881 -42.7661
rradius 29.685
rwrist 4.30072
rhand -34.5221 -0.33499
rfingers 7.12502
rthumb -7.68349 -390.175
lclavicle -9.73424e-015 -1.55968e-014
lhumerus 98.3874 22.8307 45.4721
lradius 22.6039
lwrist -48.2481
lhand -46.5554 -7.28214
lfingers 7.12502
lthumb -19.2799 21.7822
rfemur -34.7392 -8.66295 27.4775
rtibia 46.9818
rfoot -26.223 -14.5458
rtoes -0.802795
lfemur -12.2437 11.6419 -8.32034
ltibia 54.297
lfoot -14.4881 1.58731
ltoes -31.3193
1762
root 12.6363 19.5273 17.8524 156.259 6.66853 -175.696
lowerback 23.4526 0.167511 2.80336
upperback -0.406319 1.52752 1.9656
thorax -13.6816 0.695031 0.0748845
lowerneck -2.55743 -3.95242 -3.23355
upperneck 17.4528 -4.59018 2.33721
head 5.82144 -1.88099 1.04472
rclavicle -1.6437e-014 -9.36773e-015
rhumerus 95.7512 -21.8295 -41.4962
rradius 30.4902
rwrist 3.55327
rhand -34.1332 -0.78524
rfingers 7.12502
rthumb -7.30817 -390.639
lclavicle -1.6437e-014 -9.36773e-015
lhumerus 96.9798 23.439 43.369
lradius 23.2884
lwrist -46.0446
lhand -46.2468 -6.90133
lfingers 7.12502
lthumb -18.9831 22.1923
rfemur -35.0072 -8.78145 26.8812
rtibia 46.3137
rfoot -25.6807 -14.872
rtoes -2.06139
lfemur -11.348 11.7257 -9.16381
ltibia 53.5755
lfoot -13.1165 0.882315
ltoes -31.4626
